<svg version="1.1" id="Layer_1" xmlns="http://www.w3.org/2000/svg" xmlns:xlink="http://www.w3.org/1999/xlink" x="0" y="0" width="100%" viewBox="0 0 512 512" enable-background="new 0 0 512 512" xml:space="preserve"><path fill="#ffc36e" opacity="1" stroke="none" d="M1.000001 228.468658C1.663245 227.367676 2.808543 226.81044 2.920426 226.092224 7.924884 193.967468 20.5439 165.206436 40.110512 139.24295 57.304176 116.428207 78.493546 98.529228 103.569801 85.078491 106.37159 83.57563 109.315834 82.338356 112.537613 81.281494 106.190315 90.640617 99.058578 99.406754 92.889236 108.804665 72.450333 139.939728 62.658855 174.484634 62.14901 211.532639 61.894924 229.995667 64.676056 248.221893 69.764206 266.088867 81.825172 308.440704 106.063515 342.384827 140.885147 368.811676 162.893677 385.514465 187.719116 396.476746 214.753677 402.464417 236.214294 407.217499 257.86908 408.353851 279.611511 405.730316 297.494446 403.572479 314.84375 398.952423 331.482941 391.865814 332.458588 391.450287 333.847534 392.00531 335.044159 392.108673 322.607391 405.975403 307.729492 416.676727 291.760071 426.096924 274.347687 436.368378 255.662216 443.220001 236.009811 447.397003 227.438797 449.218689 218.623917 449.937134 209.897202 450.964722 205.168762 451.521515 200.387589 452.025848 195.639114 451.95517 154.478104 451.342651 116.641022 439.904968 82.836716 416.229431 65.316429 403.958649 50.251568 389.140991 37.736012 371.585907 25.611198 354.578888 15.8202 336.526764 9.969048 316.509735 7.077674 306.618195 5.283801 296.40686 2.933528 286.354187 2.763089 285.625183 2.103504 285.010559 1.335669 284.671387 1 266.312439 1 247.624878 1.000001 228.468658z"/><path fill="#ffd782" opacity="1" stroke="none" d="M476.911133 231.890533C490.490723 225.938385 506.594879 233.746216 511.307617 246.710236 511.451996 247.107468 512.047729 247.340637 512.716553 247.325134 513 252.354935 513 257.709869 513 263.53241 512.662476 264.460632 512.324951 264.921265 511.739868 265.847778 511.266968 266.530212 511.11911 266.79071 511.048706 267.095184 511.048706 267.095184 511.021484 267.023376 510.674225 267.079285 508.277527 267.790009 506.237274 268.475433 504.177216 269.094879 486.847687 274.305573 470.02063 258.568939 473.872711 241.757492 474.639282 238.412079 475.885895 235.176666 476.911133 231.890533z"/><path fill="#ffd782" opacity="1" stroke="none" d="M335.355164 391.974243C333.847534 392.00531 332.458588 391.450287 331.482941 391.865814 314.84375 398.952423 297.494446 403.572479 279.611511 405.730316 257.86908 408.353851 236.214294 407.217499 214.753677 402.464417 187.719116 396.476746 162.893677 385.514465 140.885147 368.811676 106.063515 342.384827 81.825172 308.440704 69.764206 266.088867 64.676056 248.221893 61.894924 229.995667 62.14901 211.532639 62.658855 174.484634 72.450333 139.939728 92.889236 108.804665 99.058578 99.406754 106.190315 90.640617 112.920387 81.235336 125.01857 73.744987 138.382584 70.033562 151.866531 67.178764 162.350281 64.959167 173.13942 63.841755 183.852097 63.141968 193.986572 62.479961 204.269791 62.231022 214.360336 63.169117 232.419952 64.848091 249.928894 69.209297 266.902496 75.892281 283.252441 82.329727 298.720917 90.467171 312.338806 101.338112 323.596069 110.324623 333.562531 120.988708 343.662964 131.33696 348.362823 136.152115 346.386444 146.516602 340.816498 150.635941 310.165741 173.304092 279.52298 195.983032 248.862518 218.638031 236.208282 227.98822 223.47287 237.22905 210.859177 246.633377 203.641556 252.014603 203.609253 261.947906 210.731781 267.275238 229.442978 281.270264 248.288345 295.085815 267.065826 308.99234 284.405365 321.833923 301.7276 334.698914 319.054474 347.557617 325.572418 352.394745 332.159821 357.142578 338.577057 362.110046 348.329224 369.659027 348.926422 377.584473 340.585968 386.884308 339.033905 388.614929 337.310516 390.191925 335.355164 391.974243M211.202316 126.754089C209.735092 127.526993 208.184525 128.175415 206.814011 129.092789 197.185593 135.537796 192.948166 147.209091 196.094894 158.432999 199.12912 169.255508 209.174011 177.145584 220.756607 177.804306 231.451065 178.412491 242.13298 171.303177 246.52269 160.42659 249.965652 149.476562 248.091431 139.607407 239.637131 131.709091 231.660599 124.257111 222.153076 122.886414 211.202316 126.754089z"/><path fill="#ffd782" opacity="1" stroke="none" d="M297.863678 232.957428C310.340179 226.888718 321.064941 230.059296 328.956848 237.809937 336.813507 245.52597 339.699738 255.898636 334.158447 267.683228 332.189728 267.988953 330.814789 268.572388 329.411224 268.652313 324.375488 268.939117 319.023865 270.232697 314.345825 269.015564 300.36911 265.379181 293.497894 250.800842 298.368927 237.174026 298.795349 235.98111 298.059631 234.372803 297.863678 232.957428z"/><path fill="#ffd782" opacity="1" stroke="none" d="M388.919556 231.893326C399.036743 227.871994 408.285889 229.916046 416.184998 236.842285 424.285706 243.945267 426.836884 253.1577 424.114777 263.707733 423.870422 264.654724 423.904327 265.673523 423.063843 266.857635 420.752106 267.577026 419.164093 268.041168 417.622498 268.627441 405.140137 273.374603 390.972107 266.494141 386.37973 253.961334 383.452942 245.973938 385.848694 238.987808 388.919556 231.893326z"/><path fill="#ffc46f" opacity="1" stroke="none" d="M388.555969 231.940155C385.848694 238.987808 383.452942 245.973938 386.37973 253.961334 390.972107 266.494141 405.140137 273.374603 417.622498 268.627441 419.164093 268.041168 420.752106 267.577026 422.709473 267.060822 418.118774 282.049042 398.131866 289.580414 382.835419 279.301788 374.490601 273.694427 370.5625 265.271759 371.20285 255.663727 371.930725 244.742462 377.113342 235.988831 388.555969 231.940155z"/><path fill="#ffc46f" opacity="1" stroke="none" d="M297.507446 232.968933C298.059631 234.372803 298.795349 235.98111 298.368927 237.174026 293.497894 250.800842 300.36911 265.379181 314.345825 269.015564 319.023865 270.232697 324.375488 268.939117 329.411224 268.652313 330.814789 268.572388 332.189728 267.988953 333.814453 267.862335 331.540802 278.59021 315.691559 287.314362 301.550171 282.821075 291.134705 279.511658 284.915131 271.986603 283.210327 261.708282 281.457001 251.137421 284.853607 241.700043 293.919037 235.015076 294.940887 234.261566 296.071167 233.65509 297.507446 232.968933z"/><path fill="#ffc46f" opacity="1" stroke="none" d="M476.550964 231.939636C475.885895 235.176666 474.639282 238.412079 473.872711 241.757492 470.02063 258.568939 486.847687 274.305573 504.177216 269.094879 506.237274 268.475433 508.277527 267.790009 510.709534 267.094299 508.909729 275.185638 502.883911 280.225342 495.624176 282.572815 482.868439 286.697388 471.971436 283.403442 464.218475 272.266571 455.846161 260.23999 458.262787 239.536301 476.550964 231.939636z"/><path fill="#ffc46f" opacity="1" stroke="none" d="M511.303497 267.017334C511.11911 266.79071 511.266968 266.530212 511.666138 266.167786 511.746124 266.327789 511.652191 266.633667 511.303497 267.017334z"/><path fill="#5c5e6e" opacity="1" stroke="none" d="M211.906708 126.552399C222.153076 122.886414 231.660599 124.257111 239.637131 131.709091 248.091431 139.607407 249.965652 149.476562 245.894287 160.764832 244.043625 161.605194 242.835968 162.147003 241.596848 162.603455 224.896759 168.755112 207.397446 155.661209 209.052628 140.410706 209.559219 135.742996 210.931076 131.169205 211.906708 126.552399z"/><path fill="#484856" opacity="1" stroke="none" d="M211.554504 126.653244C210.931076 131.169205 209.559219 135.742996 209.052628 140.410706 207.397446 155.661209 224.896759 168.755112 241.596848 162.603455 242.835968 162.147003 244.043625 161.605194 245.637512 161.050323 242.13298 171.303177 231.451065 178.412491 220.756607 177.804306 209.174011 177.145584 199.12912 169.255508 196.094894 158.432999 192.948166 147.209091 197.185593 135.537796 206.814011 129.092789 208.184525 128.175415 209.735092 127.526993 211.554504 126.653244z"/></svg>